<svg width="484" height="397" viewBox="0 0 484 397" fill="none" xmlns="http://www.w3.org/2000/svg">
<path d="M408.13 239.66C405.65 239.66 403.22 239.44 400.87 239.03C401.22 241.18 401.4 243.41 401.4 245.66C401.4 268.83 382.55 287.69 359.38 287.69C336.21 287.69 317.35 268.83 317.35 245.66C317.35 243.38 317.54 241.13 317.89 238.94C315.37 239.41 312.78 239.66 310.14 239.66C286.97 239.66 268.11 220.8 268.11 197.63C268.11 174.46 286.97 155.61 310.14 155.61C312.83 155.61 315.47 155.86 318.02 156.34C317.58 153.92 317.35 151.43 317.35 148.88C317.35 125.71 336.21 106.86 359.38 106.86C382.55 106.86 401.4 125.71 401.4 148.88C401.4 151.4 401.18 153.86 400.75 156.25C403.14 155.82 405.61 155.6 408.12 155.6C411.74 155.6 415.27 156.06 418.62 156.93C411.63 126.38 397.02 98.73 376.9 76.09C372.7 71.36 368.26 66.86 363.62 62.59C330.87 32.54 287.21 14.21 239.26 14.21C191.31 14.21 147.66 32.54 114.91 62.59C110.26 66.85 105.83 71.36 101.63 76.09C81.37 98.91 66.69 126.81 59.76 157.65H91.23V116.06H170.48V157.65H212.08V236.9H170.48V278.5H91.23V236.9H59.33C66.06 268.37 80.85 296.87 101.41 320.1C105.58 324.82 110 329.32 114.64 333.6C147.41 363.79 191.19 382.22 239.26 382.22C287.33 382.22 331.12 363.79 363.89 333.6C368.53 329.32 372.95 324.82 377.12 320.1C397.4 297.19 412.06 269.18 418.91 238.24C415.46 239.16 411.84 239.66 408.12 239.66H408.13Z" fill="#28B9EC"/>
<path d="M418.91 238.24C412.05 269.18 397.39 297.2 377.12 320.1C372.95 324.82 368.53 329.32 363.89 333.6C331.12 363.79 287.34 382.22 239.26 382.22C191.18 382.22 147.42 363.79 114.64 333.6C110 329.32 105.58 324.82 101.41 320.1C80.84 296.86 66.06 268.37 59.33 236.9H49.63V157.65H59.76C66.69 126.81 81.36 98.91 101.63 76.09C105.83 71.36 110.26 66.86 114.91 62.59C147.66 32.54 191.32 14.21 239.26 14.21C287.2 14.21 330.88 32.54 363.62 62.59C368.26 66.85 372.7 71.36 376.9 76.09C397.01 98.73 411.62 126.38 418.62 156.93C424.62 158.47 430.08 161.32 434.73 165.11C432.2 150.01 427.9 135.28 421.89 121.07C415.05 104.88 406.17 89.83 395.39 76.09C391.75 71.44 387.88 66.93 383.79 62.59C382.36 61.06 380.91 59.55 379.41 58.06C361.21 39.86 340.02 25.58 316.42 15.58C291.97 5.25 266.01 0 239.25 0C212.49 0 186.55 5.25 162.1 15.58C138.5 25.57 117.3 39.85 99.1 58.06C97.61 59.55 96.15 61.06 94.71 62.59C90.64 66.93 86.77 71.43 83.12 76.09C72.34 89.83 63.48 104.88 56.63 121.07C46.28 145.51 41.05 171.48 41.05 198.22C41.05 224.96 46.29 250.94 56.63 275.38C63.44 291.47 72.24 306.45 82.91 320.11C86.55 324.76 90.4 329.26 94.46 333.61C95.98 335.23 97.52 336.82 99.09 338.39C117.29 356.58 138.49 370.87 162.09 380.87C186.54 391.2 212.5 396.44 239.24 396.44C265.98 396.44 291.96 391.2 316.41 380.87C340.01 370.88 361.2 356.58 379.4 338.39C380.97 336.82 382.51 335.23 384.03 333.61C388.09 329.26 391.94 324.77 395.57 320.11C406.26 306.45 415.07 291.47 421.88 275.38C428.08 260.73 432.44 245.53 434.95 229.95C430.32 233.8 424.88 236.67 418.9 238.25L418.91 238.24Z" fill="#0B3351"/>
<path d="M445.63 76.1H38.28C24.59 76.1 13.5 87.19 13.5 100.88V295.33C13.5 309.02 24.59 320.11 38.28 320.11H445.63C459.32 320.11 470.41 309.02 470.41 295.33V100.87C470.41 87.18 459.32 76.09 445.63 76.09V76.1ZM212.08 236.9H170.48V278.5H91.23V236.9H49.63V157.65H91.23V116.06H170.48V157.65H212.08V236.9ZM434.97 229.94C430.34 233.79 424.9 236.66 418.92 238.24C415.47 239.16 411.85 239.66 408.13 239.66C405.65 239.66 403.22 239.44 400.87 239.03C401.22 241.18 401.4 243.41 401.4 245.66C401.4 268.83 382.55 287.69 359.38 287.69C336.21 287.69 317.35 268.83 317.35 245.66C317.35 243.38 317.54 241.13 317.89 238.94C315.37 239.41 312.78 239.66 310.14 239.66C286.97 239.66 268.11 220.8 268.11 197.63C268.11 174.46 286.97 155.61 310.14 155.61C312.83 155.61 315.47 155.86 318.02 156.34C317.58 153.92 317.35 151.43 317.35 148.88C317.35 125.71 336.21 106.86 359.38 106.86C382.55 106.86 401.4 125.71 401.4 148.88C401.4 151.4 401.18 153.86 400.75 156.25C403.14 155.82 405.61 155.6 408.12 155.6C411.74 155.6 415.27 156.06 418.62 156.93C424.62 158.47 430.08 161.32 434.73 165.11C444.13 172.84 450.14 184.54 450.14 197.62C450.14 210.7 444.22 222.22 434.96 229.94H434.97Z" fill="#0098C5"/>
<path d="M445.63 62.6H38.28C17.17 62.6 0 79.76 0 100.88V295.33C0 316.43 17.16 333.61 38.28 333.61H445.63C466.74 333.61 483.91 316.43 483.91 295.33V100.87C483.91 79.76 466.75 62.59 445.63 62.59V62.6ZM470.41 295.33C470.41 309.02 459.32 320.11 445.63 320.11H38.28C24.59 320.11 13.5 309.02 13.5 295.33V100.87C13.5 87.18 24.59 76.09 38.28 76.09H445.63C459.32 76.09 470.41 87.18 470.41 100.87V295.32V295.33Z" fill="#0B3351"/>
<path d="M170.48 157.66V116.07H91.23V157.66H49.63V236.91H91.23V278.51H170.48V236.91H212.08V157.66H170.48ZM198.58 223.42H156.99V265.01H104.71V223.42H63.12V171.15H104.71V129.55H156.99V171.15H198.58V223.42Z" fill="#0B3351"/>
<path d="M434.74 165.12C430.09 161.33 424.62 158.48 418.63 156.94C415.28 156.07 411.75 155.61 408.13 155.61C405.61 155.61 403.15 155.83 400.76 156.26C401.19 153.87 401.41 151.4 401.41 148.89C401.41 125.72 382.56 106.87 359.39 106.87C336.22 106.87 317.36 125.72 317.36 148.89C317.36 151.45 317.59 153.94 318.03 156.35C315.47 155.87 312.84 155.62 310.15 155.62C286.98 155.62 268.12 174.47 268.12 197.64C268.12 220.81 286.98 239.67 310.15 239.67C312.79 239.67 315.39 239.42 317.9 238.95C317.55 241.14 317.36 243.39 317.36 245.67C317.36 268.84 336.22 287.7 359.39 287.7C382.56 287.7 401.41 268.84 401.41 245.67C401.41 243.42 401.23 241.19 400.88 239.04C403.23 239.46 405.66 239.67 408.14 239.67C411.86 239.67 415.48 239.18 418.93 238.25C424.91 236.67 430.35 233.8 434.98 229.95C444.24 222.23 450.16 210.61 450.16 197.63C450.16 184.65 444.15 172.85 434.75 165.12H434.74ZM359.38 120.35C375.14 120.35 387.9 133.13 387.9 148.87C387.9 154.08 386.51 158.98 384.05 163.19C381.56 167.49 377.97 171.1 373.65 173.59C369.45 176.03 364.58 177.42 359.37 177.42C353.79 177.42 348.58 175.81 344.18 173.04C340.49 170.71 337.35 167.54 335.05 163.81C332.38 159.47 330.84 154.35 330.84 148.87C330.84 133.12 343.62 120.35 359.38 120.35ZM324.45 222.32C320.24 224.76 315.34 226.17 310.13 226.17C294.37 226.17 281.59 213.39 281.59 197.63C281.59 181.87 294.37 169.09 310.13 169.09C315.71 169.09 320.92 170.7 325.31 173.48C329.02 175.81 332.14 178.96 334.43 182.69C337.11 187.03 338.65 192.15 338.65 197.63C338.65 202.6 337.37 207.28 335.15 211.35C332.65 215.9 328.93 219.7 324.45 222.32ZM359.38 274.19C343.62 274.19 330.84 261.41 330.84 245.65C330.84 240.69 332.12 236.01 334.34 231.95C336.84 227.38 340.55 223.59 345.04 220.98C349.24 218.53 354.15 217.12 359.37 217.12C364.27 217.12 368.87 218.35 372.89 220.52C377.92 223.23 382.05 227.41 384.68 232.49C386.74 236.44 387.89 240.9 387.89 245.64C387.89 261.4 375.13 274.18 359.37 274.18L359.38 274.19ZM421.66 222.75C417.64 224.93 413.02 226.17 408.13 226.17C403.24 226.17 398.63 224.94 394.61 222.77C389.58 220.06 385.44 215.88 382.8 210.79C380.75 206.86 379.59 202.38 379.59 197.64C379.59 192.43 380.99 187.55 383.42 183.35C385.92 179.04 389.52 175.44 393.83 172.95C398.03 170.51 402.91 169.1 408.14 169.1C412.97 169.1 417.53 170.3 421.5 172.43C430.53 177.22 436.67 186.71 436.67 197.64C436.67 208.57 430.61 217.94 421.68 222.76L421.66 222.75Z" fill="#0B3351"/>
</svg>
